<?xml version="1.0" encoding="UTF-8"?>
<svg xmlns="http://www.w3.org/2000/svg" xmlns:xlink="http://www.w3.org/1999/xlink" width="646.71pt" height="314.46pt" viewBox="216.64 238.24 646.71 314.46" preserveAspectRatio="xMinYMin meet" version="1.2">
<g id="surface1">
<path style=" stroke:none;fill-rule:nonzero;fill:rgb(100%,100%,100%);fill-opacity:1;" d="M 313.273438 277.140625 C 283.078125 277.140625 265.789062 292.5 261.402344 323.214844 L 260.351562 323.214844 L 262.457031 279.773438 L 220.066406 279.773438 L 220.066406 413.265625 L 262.457031 413.265625 L 262.457031 340.855469 C 262.457031 315.230469 273.6875 302.414062 296.160156 302.414062 C 307.214844 302.414062 315.289062 306.058594 320.382812 313.34375 C 325.46875 320.628906 328.015625 331.90625 328.015625 347.175781 L 328.015625 413.265625 L 370.144531 413.265625 L 370.144531 341.121094 C 370.144531 320.234375 364.964844 304.351562 354.609375 293.464844 C 344.25 282.582031 330.472656 277.140625 313.273438 277.140625 "/>
<path style=" stroke:none;fill-rule:nonzero;fill:rgb(100%,100%,100%);fill-opacity:1;" d="M 444.390625 305.316406 C 451.671875 298.644531 460.757812 295.308594 471.644531 295.308594 C 483.402344 295.308594 492.835938 298.644531 499.945312 305.316406 C 507.058594 311.984375 510.609375 320.757812 510.609375 331.640625 L 432.148438 331.640625 C 433.023438 320.757812 437.105469 311.984375 444.390625 305.316406 M 501.660156 385.878906 C 494.636719 391.324219 485.421875 394.042969 474.011719 394.042969 C 461.726562 394.042969 451.671875 390.09375 443.863281 382.195312 C 436.054688 374.296875 432.058594 363.238281 431.886719 349.019531 L 551.683594 349.019531 L 551.949219 341.121094 C 551.949219 327.785156 548.480469 316.0625 541.546875 305.972656 C 534.613281 295.878906 525.046875 288.109375 512.847656 282.667969 C 500.648438 277.230469 486.824219 274.503906 471.378906 274.503906 C 455.582031 274.503906 441.40625 277.402344 428.859375 283.195312 C 416.308594 288.988281 406.433594 297.324219 399.238281 308.207031 C 392.035156 319.09375 388.441406 331.90625 388.441406 346.648438 C 388.441406 360.867188 391.949219 373.417969 398.972656 384.300781 C 405.992188 395.1875 415.867188 403.609375 428.59375 409.578125 C 441.320312 415.542969 455.933594 418.527344 472.433594 418.527344 C 487.179688 418.527344 500.429688 416.421875 512.191406 412.207031 C 523.949219 407.992188 533.386719 401.984375 540.496094 394.171875 C 547.605469 386.367188 551.769531 377.367188 553 367.1875 L 514.558594 364.554688 C 512.980469 373.332031 508.675781 380.4375 501.660156 385.878906 "/>
<path style=" stroke:none;fill-rule:nonzero;fill:rgb(100%,100%,100%);fill-opacity:1;" d="M 623.371094 299.386719 C 628.636719 296.316406 635.742188 294.78125 644.695312 294.78125 C 655.398438 294.78125 664.179688 297.109375 671.023438 301.757812 C 677.871094 306.40625 682.082031 313.207031 683.664062 322.164062 L 718.417969 319 C 717.1875 310.40625 713.457031 302.808594 707.226562 296.230469 C 700.996094 289.644531 692.523438 284.46875 681.820312 280.695312 C 671.109375 276.925781 658.738281 275.03125 644.695312 275.03125 C 631.53125 275.03125 619.816406 276.875 609.546875 280.558594 C 599.277344 284.246094 591.25 289.382812 585.457031 295.964844 C 579.664062 302.542969 576.765625 310.050781 576.765625 318.476562 C 576.765625 330.0625 581.019531 339.71875 589.535156 347.441406 C 598.046875 355.160156 611.429688 359.8125 629.6875 361.398438 L 651.542969 363.496094 C 659.441406 364.382812 665.40625 366.132812 669.445312 368.765625 C 673.480469 371.394531 675.503906 375.175781 675.503906 380.089844 C 675.503906 385.351562 672.691406 389.660156 667.074219 392.988281 C 661.457031 396.320312 653.910156 397.996094 644.433594 397.996094 C 632.671875 397.996094 623.015625 395.488281 615.472656 390.488281 C 607.921875 385.488281 603.269531 378.425781 601.515625 369.289062 L 566.5 373.238281 C 569.132812 387.460938 577.511719 398.480469 591.640625 406.285156 C 605.769531 414.09375 623.371094 418 644.433594 418 C 658.296875 418 670.714844 416.199219 681.6875 412.605469 C 692.65625 409.007812 701.257812 403.871094 707.492188 397.203125 C 713.71875 390.53125 716.839844 382.722656 716.839844 373.765625 C 716.839844 360.605469 711.746094 350.46875 701.566406 343.355469 C 691.386719 336.25 677.605469 331.820312 660.230469 330.0625 L 638.378906 328.21875 C 623.105469 326.8125 615.472656 321.285156 615.472656 311.628906 C 615.472656 306.542969 618.101562 302.457031 623.371094 299.386719 "/>
<path style=" stroke:none;fill-rule:nonzero;fill:rgb(100%,100%,100%);fill-opacity:1;" d="M 826.230469 299.316406 C 835.269531 299.726562 844.105469 296.121094 852.035156 288.511719 C 866.582031 274.558594 867.054688 254.945312 853.71875 238.25 C 839.742188 251.304688 826.246094 263.914062 812.851562 276.429688 L 721.8125 276.429688 L 721.8125 299.675781 L 747.792969 299.675781 L 747.792969 361.21875 C 747.792969 398.964844 766.027344 417.832031 802.5 417.832031 C 811.976562 417.832031 821.457031 416.738281 830.941406 414.550781 L 831.761719 387.746094 C 827.386719 388.84375 823.285156 389.390625 819.457031 389.390625 C 800.855469 389.390625 791.558594 378.175781 791.558594 355.746094 L 791.558594 299.675781 Z M 826.230469 299.316406 "/>
<path style=" stroke:none;fill-rule:nonzero;fill:rgb(45.690918%,65.342712%,87.068176%);fill-opacity:1;" d="M 254.832031 520.539062 C 258.050781 519.195312 260.695312 517.203125 262.765625 514.558594 C 264.835938 511.914062 265.871094 508.789062 265.871094 505.183594 L 265.871094 495.753906 L 265.179688 495.753906 C 264.644531 497.210938 263.628906 498.363281 262.132812 499.203125 C 260.636719 500.050781 258.585938 500.699219 255.980469 501.160156 L 243.675781 503 C 235.855469 504.457031 231.945312 507.984375 231.945312 513.578125 C 231.945312 516.417969 233.113281 518.621094 235.453125 520.191406 C 237.789062 521.765625 240.914062 522.550781 244.824219 522.550781 C 248.277344 522.550781 251.609375 521.878906 254.832031 520.539062 M 222.574219 526.574219 C 218.625 523.816406 216.652344 519.945312 216.652344 514.960938 C 216.652344 509.824219 218.738281 505.683594 222.917969 502.539062 C 227.097656 499.398438 233.363281 497.328125 241.71875 496.328125 L 256.441406 494.488281 C 259.890625 494.105469 262.285156 493.476562 263.628906 492.59375 C 264.96875 491.710938 265.640625 490.390625 265.640625 488.625 C 265.640625 485.480469 264.222656 482.988281 261.386719 481.148438 C 258.546875 479.308594 254.714844 478.390625 249.886719 478.390625 C 245.285156 478.390625 241.527344 479.597656 238.617188 482.011719 C 235.699219 484.429688 233.976562 487.703125 233.441406 491.84375 L 218.835938 491.386719 C 219.371094 487.246094 220.964844 483.488281 223.609375 480.113281 C 226.253906 476.742188 229.835938 474.097656 234.359375 472.179688 C 238.882812 470.265625 244.136719 469.304688 250.117188 469.304688 C 259.621094 469.304688 267.117188 471.183594 272.597656 474.941406 C 278.078125 478.695312 280.820312 484.332031 280.820312 491.84375 L 280.820312 511.394531 L 283.695312 529.449219 L 268.859375 529.449219 L 267.59375 514.960938 L 266.789062 514.960938 C 265.484375 519.714844 262.324219 523.527344 257.304688 526.402344 C 252.28125 529.277344 246.207031 530.714844 239.074219 530.714844 C 232.019531 530.714844 226.519531 529.335938 222.574219 526.574219 "/>
<path style=" stroke:none;fill-rule:nonzero;fill:rgb(45.690918%,65.342712%,87.068176%);fill-opacity:1;" d="M 341.308594 519.789062 C 344.53125 517.875 347.039062 515.210938 348.84375 511.796875 C 350.640625 508.386719 351.542969 504.496094 351.542969 500.125 C 351.542969 495.753906 350.640625 491.863281 348.84375 488.453125 C 347.039062 485.042969 344.53125 482.398438 341.308594 480.519531 C 338.089844 478.640625 334.371094 477.699219 330.15625 477.699219 C 326.015625 477.699219 322.335938 478.640625 319.113281 480.519531 C 315.894531 482.398438 313.402344 485.042969 311.640625 488.453125 C 309.875 491.863281 308.996094 495.753906 308.996094 500.125 C 308.996094 504.496094 309.875 508.40625 311.640625 511.855469 C 313.402344 515.304688 315.894531 517.96875 319.113281 519.847656 C 322.335938 521.726562 326.015625 522.664062 330.15625 522.664062 C 334.371094 522.664062 338.089844 521.707031 341.308594 519.789062 M 309.28125 527.265625 C 304.335938 524.582031 300.484375 520.882812 297.722656 516.167969 C 294.964844 511.453125 293.585938 506.105469 293.585938 500.125 C 293.585938 494.144531 294.964844 488.816406 297.722656 484.140625 C 300.484375 479.464844 304.335938 475.804688 309.28125 473.15625 C 314.226562 470.511719 319.804688 469.191406 326.015625 469.191406 C 331.996094 469.191406 337.265625 470.53125 341.828125 473.214844 C 346.386719 475.898438 349.359375 479.386719 350.738281 483.679688 L 351.085938 483.679688 L 351.085938 447.800781 L 366.035156 447.800781 L 366.035156 529.449219 L 351.085938 529.449219 L 352.234375 514.84375 L 351.773438 514.84375 C 350.238281 519.828125 347.117188 523.816406 342.402344 526.804688 C 337.6875 529.796875 332.222656 531.289062 326.015625 531.289062 C 319.804688 531.289062 314.226562 529.949219 309.28125 527.265625 "/>
<path style=" stroke:none;fill-rule:nonzero;fill:rgb(45.690918%,65.342712%,87.068176%);fill-opacity:1;" d="M 376.152344 471.375 L 392.828125 471.375 L 414.21875 516.914062 L 435.035156 471.375 L 448.375 471.375 L 421.695312 529.449219 L 404.789062 529.449219 Z M 376.152344 471.375 "/>
<path style=" stroke:none;fill-rule:nonzero;fill:rgb(45.690918%,65.342712%,87.068176%);fill-opacity:1;" d="M 473.445312 529.449219 L 458.492188 529.449219 L 458.492188 471.375 L 473.445312 471.375 Z M 457.285156 460.277344 C 455.023438 458.476562 453.894531 456.121094 453.894531 453.203125 C 453.894531 450.292969 455.023438 447.933594 457.285156 446.132812 C 459.546875 444.332031 462.441406 443.429688 465.96875 443.429688 C 469.496094 443.429688 472.390625 444.332031 474.652344 446.132812 C 476.910156 447.933594 478.042969 450.292969 478.042969 453.203125 C 478.042969 456.121094 476.910156 458.476562 474.652344 460.277344 C 472.390625 462.078125 469.496094 462.980469 465.96875 462.980469 C 462.441406 462.980469 459.546875 462.078125 457.285156 460.277344 "/>
<path style=" stroke:none;fill-rule:nonzero;fill:rgb(45.690918%,65.342712%,87.068176%);fill-opacity:1;" d="M 495.867188 526.34375 C 489.8125 522.894531 486.207031 518.066406 485.058594 511.855469 L 497.59375 510.246094 C 498.515625 514.617188 500.792969 517.988281 504.4375 520.363281 C 508.078125 522.742188 512.734375 523.929688 518.410156 523.929688 C 523.160156 523.929688 526.957031 523.066406 529.792969 521.34375 C 532.628906 519.617188 534.050781 517.453125 534.050781 514.84375 C 534.050781 512.316406 533.015625 510.378906 530.945312 509.039062 C 528.875 507.699219 525.804688 506.835938 521.742188 506.449219 L 512.3125 505.644531 C 504.648438 504.953125 498.992188 502.984375 495.351562 499.722656 C 491.710938 496.464844 489.890625 492.382812 489.890625 487.476562 C 489.890625 483.949219 491.097656 480.804688 493.511719 478.042969 C 495.925781 475.285156 499.28125 473.140625 503.574219 471.605469 C 507.867188 470.074219 512.734375 469.304688 518.179688 469.304688 C 526.996094 469.304688 534.144531 471.070312 539.625 474.59375 C 545.105469 478.121094 548.269531 482.800781 549.113281 488.625 L 536.578125 489.890625 C 535.890625 485.828125 533.933594 482.625 530.714844 480.289062 C 527.492188 477.949219 523.277344 476.78125 518.0625 476.78125 C 513.695312 476.78125 510.222656 477.566406 507.65625 479.136719 C 505.085938 480.710938 503.804688 482.761719 503.804688 485.289062 C 503.804688 487.667969 504.722656 489.585938 506.5625 491.039062 C 508.402344 492.496094 511.277344 493.378906 515.1875 493.683594 L 524.617188 494.492188 C 532.132812 495.179688 538.015625 497 542.269531 499.953125 C 546.527344 502.90625 548.652344 507.179688 548.652344 512.777344 C 548.652344 516.53125 547.367188 519.828125 544.800781 522.664062 C 542.230469 525.503906 538.648438 527.6875 534.050781 529.21875 C 529.449219 530.753906 524.234375 531.519531 518.410156 531.519531 C 509.4375 531.519531 501.925781 529.796875 495.867188 526.34375 "/>
<path style=" stroke:none;fill-rule:nonzero;fill:rgb(45.690918%,65.342712%,87.068176%);fill-opacity:1;" d="M 606.554688 520.191406 C 609.8125 518.316406 612.363281 515.671875 614.203125 512.257812 C 616.042969 508.847656 616.960938 504.878906 616.960938 500.355469 C 616.960938 495.832031 616.042969 491.863281 614.203125 488.453125 C 612.363281 485.042969 609.8125 482.398438 606.554688 480.515625 C 603.292969 478.640625 599.558594 477.699219 595.339844 477.699219 C 591.125 477.699219 587.386719 478.640625 584.128906 480.515625 C 580.871094 482.398438 578.339844 485.042969 576.539062 488.453125 C 574.738281 491.863281 573.835938 495.832031 573.835938 500.355469 C 573.835938 504.878906 574.738281 508.847656 576.539062 512.257812 C 578.339844 515.671875 580.871094 518.316406 584.128906 520.191406 C 587.386719 522.070312 591.125 523.011719 595.339844 523.011719 C 599.558594 523.011719 603.292969 522.070312 606.554688 520.191406 M 576.308594 527.726562 C 570.675781 525.042969 566.285156 521.324219 563.140625 516.570312 C 559.996094 511.816406 558.425781 506.410156 558.425781 500.355469 C 558.425781 494.375 559.996094 489.007812 563.140625 484.253906 C 566.285156 479.503906 570.675781 475.785156 576.308594 473.101562 C 581.945312 470.417969 588.285156 469.074219 595.339844 469.074219 C 602.472656 469.074219 608.835938 470.417969 614.429688 473.101562 C 620.027344 475.785156 624.398438 479.480469 627.542969 484.199219 C 630.683594 488.914062 632.257812 494.300781 632.257812 500.355469 C 632.257812 506.410156 630.683594 511.816406 627.542969 516.570312 C 624.398438 521.324219 620.027344 525.042969 614.429688 527.726562 C 608.835938 530.40625 602.472656 531.75 595.339844 531.75 C 588.285156 531.75 581.945312 530.40625 576.308594 527.726562 "/>
<path style=" stroke:none;fill-rule:nonzero;fill:rgb(45.690918%,65.342712%,87.068176%);fill-opacity:1;" d="M 644.675781 471.375 L 659.625 471.375 L 658.128906 491.039062 L 658.820312 491.039062 C 659.816406 484.828125 662.019531 479.867188 665.433594 476.148438 C 668.84375 472.429688 673.425781 470.570312 679.175781 470.570312 C 681.78125 470.570312 684.042969 470.878906 685.960938 471.488281 L 685.386719 485.175781 C 683.777344 484.484375 682.339844 484.023438 681.074219 483.792969 C 679.808594 483.566406 678.445312 483.449219 676.992188 483.449219 C 670.703125 483.449219 666.257812 485.5 663.652344 489.601562 C 661.042969 493.703125 659.699219 499.4375 659.625 506.792969 L 659.625 529.449219 L 644.675781 529.449219 Z M 644.675781 471.375 "/>
<path style=" stroke:none;fill-rule:nonzero;fill:rgb(45.690918%,65.342712%,87.068176%);fill-opacity:1;" d="M 696.886719 539.453125 C 701.101562 541.066406 704.933594 541.871094 708.386719 541.871094 C 711.375 541.871094 714.039062 541.273438 716.378906 540.085938 C 718.714844 538.898438 720.535156 537.039062 721.839844 534.511719 L 722.761719 532.554688 L 691.59375 471.375 L 708.5 471.375 L 730.582031 518.753906 L 750.707031 471.375 L 764.046875 471.375 L 736.101562 533.589844 C 733.1875 540.105469 729.546875 544.917969 725.175781 548.023438 C 720.804688 551.128906 715.628906 552.679688 709.648438 552.679688 C 704.972656 552.679688 699.949219 551.835938 694.585938 550.148438 Z M 696.886719 539.453125 "/>
</g>
</svg>
